<svg width="300" height="300" viewBox="0 0 300 300" fill="none" xmlns="http://www.w3.org/2000/svg">
<rect x="118.326" y="220.594" width="64.3371" height="31.8299" fill="white"/>
<rect x="93.9451" y="252.424" width="113.098" height="15.5763" rx="7.78817" fill="white"/>
<rect x="279.507" y="41.804" width="169.985" height="258.025" rx="19" transform="rotate(90 279.507 41.804)" fill="url(#paint0_linear_39_54)"/>
<rect x="283.488" y="38.5" width="176.593" height="265.988" rx="28.5" transform="rotate(90 283.488 38.5)" stroke="white" stroke-width="11"/>
<g clip-path="url(#clip0_39_54)" filter="url(#filter0_f_39_54)">
<path d="M199.593 154.212C173.708 173.776 138.289 160.597 126.857 137.858C115.735 117.633 120.209 87.9883 142.326 73.634C139.228 78.7872 135.65 85.3906 134.782 89.4877C134.641 90.1072 134.521 90.7127 134.429 91.297C128.783 115.063 145.854 151.333 179.361 155.902C181.114 156.141 182.878 156.284 184.647 156.331C188.62 156.479 194.435 155.543 199.593 154.212Z" fill="white" fill-opacity="0.5"/>
<path d="M199.594 154.212C192.541 165.133 181.725 173.101 169.187 176.613C156.649 180.125 143.256 178.938 131.535 173.276L130.978 173.001C130.364 172.692 129.757 172.382 129.157 172.058C128.96 171.952 128.769 171.84 128.572 171.741C127.816 171.312 127.075 170.875 126.342 170.418C126.179 170.312 126.017 170.214 125.869 170.108C125.72 170.002 125.615 169.939 125.481 169.862C125.346 169.784 125.121 169.629 124.951 169.51C124.415 169.158 123.9 168.806 123.392 168.425C123.35 168.389 123.305 168.356 123.258 168.327L122.771 167.968C122.615 167.848 122.453 167.736 122.298 167.609C121.55 167.039 120.816 166.454 120.124 165.849C119.969 165.73 119.821 165.603 119.68 165.469C109.454 156.753 102.891 143.138 101.847 132.241C101.847 132.184 101.847 132.128 101.847 132.072C100.74 123.412 101.788 114.614 104.898 106.454C108.008 98.2939 113.085 91.0236 119.68 85.285C119.697 85.2626 119.719 85.2435 119.743 85.2286C123.31 82.1001 127.292 79.4776 131.578 77.4355C134.656 75.9693 137.865 74.791 141.161 73.9156C141.542 73.8171 141.916 73.7256 142.326 73.634C113.392 93.9299 114.232 137.915 144.711 156.176C144.808 156.244 144.909 156.305 145.014 156.359C145.494 156.655 145.995 156.95 146.511 157.239C165.614 167.186 185.374 164.504 199.594 154.212Z" fill="white" fill-opacity="0.5"/>
<path d="M137.746 150.854C141.226 150.854 144.048 148.039 144.048 144.567C144.048 141.095 141.226 138.281 137.746 138.281C134.265 138.281 131.444 141.095 131.444 144.567C131.444 148.039 134.265 150.854 137.746 150.854Z" fill="white" fill-opacity="0.5"/>
<g style="mix-blend-mode:multiply">
<path d="M137.746 138.281C136.853 138.278 135.969 138.466 135.154 138.83C134.339 139.194 133.611 139.727 133.018 140.393C134.213 139.293 135.79 138.697 137.416 138.731C139.042 138.765 140.592 139.426 141.741 140.574C142.89 141.723 143.548 143.271 143.578 144.893C143.608 146.516 143.008 148.087 141.902 149.277C142.867 148.436 143.552 147.321 143.864 146.081C144.176 144.841 144.101 143.536 143.649 142.34C143.197 141.144 142.389 140.114 141.334 139.389C140.279 138.663 139.027 138.277 137.746 138.281Z" fill="white" fill-opacity="0.5"/>
</g>
<path d="M122.94 122.188C125.629 122.188 127.809 120.013 127.809 117.33C127.809 114.648 125.629 112.473 122.94 112.473C120.251 112.473 118.071 114.648 118.071 117.33C118.071 120.013 120.251 122.188 122.94 122.188Z" fill="white" fill-opacity="0.5"/>
<g style="mix-blend-mode:multiply">
<path d="M122.94 112.473C122.249 112.473 121.567 112.62 120.938 112.904C120.308 113.188 119.747 113.602 119.292 114.12C120.217 113.29 121.427 112.846 122.671 112.88C123.915 112.913 125.099 113.421 125.979 114.299C126.859 115.176 127.368 116.358 127.402 117.599C127.435 118.84 126.99 120.046 126.158 120.97C126.902 120.319 127.429 119.457 127.669 118.499C127.909 117.541 127.85 116.533 127.5 115.609C127.151 114.685 126.527 113.89 125.712 113.33C124.897 112.769 123.93 112.47 122.94 112.473Z" fill="white" fill-opacity="0.5"/>
</g>
<path d="M131.811 93.9157C131.811 94.3599 131.679 94.7941 131.431 95.1634C131.184 95.5327 130.832 95.8205 130.421 95.9905C130.01 96.1605 129.557 96.205 129.12 96.1183C128.684 96.0317 128.283 95.8178 127.968 95.5037C127.653 95.1896 127.438 94.7895 127.352 94.3539C127.265 93.9182 127.309 93.4667 127.48 93.0564C127.65 92.646 127.939 92.2953 128.309 92.0485C128.679 91.8018 129.114 91.67 129.56 91.67C129.855 91.67 130.148 91.7281 130.421 91.841C130.694 91.9538 130.942 92.1193 131.151 92.3278C131.36 92.5363 131.526 92.7839 131.639 93.0564C131.753 93.3288 131.811 93.6208 131.811 93.9157Z" fill="white" fill-opacity="0.5"/>
<g style="mix-blend-mode:multiply">
<path d="M129.559 91.6701C129.24 91.6694 128.925 91.7369 128.634 91.8681C128.343 91.9992 128.083 92.1909 127.873 92.4304C128.281 92.0673 128.808 91.8668 129.355 91.8672C129.787 91.8689 130.21 91.9948 130.573 92.2299C130.935 92.465 131.222 92.7993 131.4 93.1929C131.577 93.5865 131.637 94.0226 131.572 94.4492C131.507 94.8758 131.32 95.2747 131.034 95.5983C131.38 95.2985 131.626 94.9004 131.738 94.4575C131.85 94.0145 131.824 93.5478 131.662 93.1202C131.501 92.6926 131.212 92.3244 130.835 92.0652C130.458 91.806 130.01 91.6681 129.552 91.6701H129.559Z" fill="white" fill-opacity="0.5"/>
</g>
<path d="M173.567 157.408C173.567 157.852 173.435 158.286 173.188 158.656C172.94 159.025 172.589 159.313 172.177 159.483C171.766 159.653 171.313 159.697 170.877 159.611C170.44 159.524 170.039 159.31 169.724 158.996C169.409 158.682 169.195 158.282 169.108 157.846C169.021 157.411 169.066 156.959 169.236 156.549C169.406 156.138 169.695 155.788 170.065 155.541C170.435 155.294 170.871 155.162 171.316 155.162C171.913 155.162 172.486 155.399 172.908 155.82C173.33 156.241 173.567 156.812 173.567 157.408Z" fill="white" fill-opacity="0.5"/>
<g style="mix-blend-mode:multiply">
<path d="M171.316 155.127C170.997 155.128 170.682 155.196 170.391 155.327C170.1 155.458 169.841 155.649 169.629 155.887C170.06 155.515 170.615 155.32 171.184 155.34C171.753 155.36 172.294 155.594 172.696 155.996C173.099 156.398 173.334 156.937 173.354 157.504C173.374 158.072 173.178 158.626 172.805 159.055C173.147 158.754 173.389 158.355 173.499 157.913C173.609 157.47 173.581 157.005 173.42 156.579C173.258 156.152 172.97 155.785 172.595 155.526C172.219 155.267 171.773 155.128 171.316 155.127Z" fill="white" fill-opacity="0.5"/>
</g>
<path d="M137.823 129.566C137.823 130.01 137.691 130.444 137.443 130.814C137.196 131.183 136.844 131.471 136.432 131.641C136.02 131.811 135.567 131.855 135.13 131.768C134.693 131.68 134.292 131.466 133.978 131.151C133.663 130.836 133.449 130.435 133.363 129.999C133.277 129.563 133.323 129.111 133.494 128.701C133.666 128.291 133.955 127.941 134.326 127.695C134.698 127.449 135.134 127.318 135.579 127.32C135.874 127.32 136.167 127.378 136.439 127.491C136.712 127.604 136.96 127.769 137.168 127.978C137.377 128.187 137.542 128.434 137.654 128.707C137.767 128.979 137.824 129.271 137.823 129.566Z" fill="white" fill-opacity="0.5"/>
<g style="mix-blend-mode:multiply">
<path d="M135.579 127.32C135.259 127.319 134.943 127.387 134.652 127.519C134.36 127.652 134.101 127.845 133.893 128.087C134.3 127.723 134.828 127.522 135.375 127.524C135.972 127.524 136.544 127.761 136.966 128.182C137.389 128.603 137.626 129.174 137.626 129.77C137.626 130.315 137.425 130.841 137.061 131.248C137.403 130.947 137.645 130.549 137.755 130.107C137.865 129.665 137.838 129.201 137.677 128.775C137.516 128.349 137.23 127.981 136.855 127.722C136.48 127.462 136.035 127.322 135.579 127.32Z" fill="white" fill-opacity="0.5"/>
</g>
</g>
<g clip-path="url(#clip1_39_54)" filter="url(#filter1_d_39_54)">
<path d="M201.891 154.212C176.006 173.776 140.586 160.597 129.154 137.858C118.032 117.633 122.506 87.9883 144.623 73.634C141.525 78.7872 137.947 85.3906 137.079 89.4877C136.938 90.1072 136.818 90.7127 136.726 91.297C131.081 115.063 148.151 151.333 181.658 155.902C183.411 156.141 185.176 156.284 186.944 156.331C190.917 156.479 196.732 155.543 201.891 154.212Z" fill="white"/>
<path d="M201.891 154.212C194.838 165.133 184.022 173.101 171.484 176.613C158.946 180.125 145.554 178.938 133.833 173.276L133.275 173.001C132.661 172.692 132.054 172.382 131.455 172.058C131.257 171.952 131.066 171.84 130.869 171.741C130.114 171.312 129.373 170.875 128.639 170.418C128.477 170.312 128.314 170.214 128.166 170.108C128.018 170.002 127.912 169.939 127.778 169.862C127.644 169.784 127.418 169.629 127.249 169.51C126.712 169.158 126.197 168.806 125.689 168.425C125.647 168.389 125.602 168.356 125.555 168.327L125.068 167.968C124.913 167.848 124.75 167.736 124.595 167.609C123.847 167.039 123.113 166.454 122.422 165.849C122.267 165.73 122.118 165.603 121.977 165.469C111.751 156.753 105.188 143.138 104.144 132.241C104.144 132.184 104.144 132.128 104.144 132.072C103.037 123.412 104.085 114.614 107.196 106.454C110.306 98.2939 115.382 91.0236 121.977 85.285C121.995 85.2626 122.016 85.2435 122.041 85.2286C125.607 82.1001 129.59 79.4776 133.875 77.4355C136.954 75.9693 140.162 74.791 143.459 73.9156C143.84 73.8171 144.214 73.7256 144.623 73.634C115.689 93.9299 116.529 137.915 147.008 156.176C147.105 156.244 147.207 156.305 147.312 156.359C147.792 156.655 148.293 156.95 148.808 157.239C167.911 167.186 187.671 164.504 201.891 154.212Z" fill="#F4F4F4"/>
<path d="M140.043 150.854C143.524 150.854 146.345 148.039 146.345 144.567C146.345 141.095 143.524 138.281 140.043 138.281C136.563 138.281 133.741 141.095 133.741 144.567C133.741 148.039 136.563 150.854 140.043 150.854Z" fill="#E6E6E6"/>
<g style="mix-blend-mode:multiply">
<path d="M140.043 138.281C139.15 138.278 138.267 138.466 137.451 138.83C136.636 139.194 135.908 139.727 135.315 140.393C136.511 139.293 138.087 138.697 139.713 138.731C141.34 138.765 142.89 139.426 144.038 140.574C145.187 141.723 145.846 143.271 145.876 144.893C145.906 146.516 145.305 148.087 144.2 149.277C145.165 148.436 145.849 147.321 146.161 146.081C146.473 144.841 146.398 143.536 145.946 142.34C145.494 141.144 144.687 140.114 143.632 139.389C142.577 138.663 141.325 138.277 140.043 138.281Z" fill="#E6E6E6"/>
</g>
<path d="M125.237 122.188C127.927 122.188 130.107 120.013 130.107 117.33C130.107 114.648 127.927 112.473 125.237 112.473C122.548 112.473 120.368 114.648 120.368 117.33C120.368 120.013 122.548 122.188 125.237 122.188Z" fill="#E6E6E6"/>
<g style="mix-blend-mode:multiply">
<path d="M125.237 112.473C124.547 112.473 123.864 112.62 123.235 112.904C122.606 113.188 122.045 113.602 121.589 114.12C122.515 113.29 123.724 112.846 124.968 112.88C126.212 112.913 127.396 113.421 128.276 114.299C129.157 115.176 129.666 116.358 129.699 117.599C129.732 118.84 129.287 120.046 128.455 120.97C129.2 120.319 129.727 119.457 129.967 118.499C130.207 117.541 130.148 116.533 129.798 115.609C129.448 114.685 128.824 113.89 128.009 113.33C127.194 112.769 126.227 112.47 125.237 112.473Z" fill="#E6E6E6"/>
</g>
<path d="M134.108 93.9157C134.108 94.3599 133.976 94.7941 133.729 95.1634C133.481 95.5327 133.13 95.8205 132.718 95.9905C132.307 96.1605 131.854 96.205 131.418 96.1183C130.981 96.0317 130.58 95.8178 130.265 95.5037C129.95 95.1896 129.736 94.7895 129.649 94.3539C129.562 93.9182 129.607 93.4667 129.777 93.0564C129.947 92.646 130.236 92.2953 130.606 92.0485C130.976 91.8018 131.412 91.67 131.857 91.67C132.153 91.67 132.445 91.7281 132.718 91.841C132.992 91.9538 133.24 92.1193 133.449 92.3278C133.658 92.5363 133.824 92.7839 133.937 93.0564C134.05 93.3288 134.108 93.6208 134.108 93.9157Z" fill="#E6E6E6"/>
<g style="mix-blend-mode:multiply">
<path d="M131.857 91.6701C131.538 91.6694 131.222 91.7369 130.931 91.8681C130.64 91.9992 130.381 92.1909 130.17 92.4304C130.578 92.0673 131.106 91.8668 131.652 91.8672C132.085 91.8689 132.507 91.9948 132.87 92.2299C133.233 92.465 133.52 92.7993 133.697 93.1929C133.874 93.5865 133.934 94.0226 133.869 94.4492C133.804 94.8758 133.618 95.2747 133.332 95.5983C133.677 95.2985 133.923 94.9004 134.035 94.4575C134.147 94.0145 134.121 93.5478 133.96 93.1202C133.798 92.6926 133.51 92.3244 133.133 92.0652C132.755 91.806 132.308 91.6681 131.85 91.6701H131.857Z" fill="#E6E6E6"/>
</g>
<path d="M175.864 157.408C175.864 157.852 175.732 158.286 175.485 158.656C175.238 159.025 174.886 159.313 174.475 159.483C174.063 159.653 173.611 159.697 173.174 159.611C172.737 159.524 172.336 159.31 172.021 158.996C171.707 158.682 171.492 158.282 171.405 157.846C171.318 157.411 171.363 156.959 171.533 156.549C171.704 156.138 171.992 155.788 172.363 155.541C172.733 155.294 173.168 155.162 173.613 155.162C174.21 155.162 174.783 155.399 175.205 155.82C175.627 156.241 175.864 156.812 175.864 157.408Z" fill="#E6E6E6"/>
<g style="mix-blend-mode:multiply">
<path d="M173.613 155.127C173.294 155.128 172.979 155.196 172.688 155.327C172.398 155.458 172.138 155.649 171.927 155.887C172.357 155.515 172.913 155.32 173.482 155.34C174.051 155.36 174.591 155.594 174.994 155.996C175.396 156.398 175.631 156.937 175.652 157.504C175.672 158.072 175.476 158.626 175.102 159.055C175.445 158.754 175.687 158.355 175.797 157.913C175.906 157.47 175.879 157.005 175.717 156.579C175.555 156.152 175.268 155.785 174.892 155.526C174.516 155.267 174.07 155.128 173.613 155.127Z" fill="#E6E6E6"/>
</g>
<path d="M140.121 129.566C140.121 130.01 139.988 130.444 139.741 130.814C139.493 131.183 139.141 131.471 138.729 131.641C138.317 131.811 137.864 131.855 137.428 131.768C136.991 131.68 136.59 131.466 136.275 131.151C135.96 130.836 135.747 130.435 135.661 129.999C135.574 129.563 135.62 129.111 135.792 128.701C135.963 128.291 136.253 127.941 136.624 127.695C136.995 127.449 137.431 127.318 137.876 127.32C138.172 127.32 138.464 127.378 138.737 127.491C139.01 127.604 139.257 127.769 139.466 127.978C139.674 128.187 139.839 128.434 139.952 128.707C140.064 128.979 140.121 129.271 140.121 129.566Z" fill="#E6E6E6"/>
<g style="mix-blend-mode:multiply">
<path d="M137.877 127.32C137.557 127.319 137.24 127.387 136.949 127.519C136.658 127.652 136.399 127.845 136.19 128.087C136.597 127.723 137.125 127.522 137.672 127.524C138.269 127.524 138.842 127.761 139.264 128.182C139.686 128.603 139.923 129.174 139.923 129.77C139.924 130.315 139.723 130.841 139.359 131.248C139.7 130.947 139.942 130.549 140.052 130.107C140.162 129.665 140.135 129.201 139.974 128.775C139.814 128.349 139.527 127.981 139.152 127.722C138.778 127.462 138.333 127.322 137.877 127.32Z" fill="#E6E6E6"/>
</g>
</g>
<path d="M73.7319 175.587C74.1369 173.84 73.0742 172.09 71.3584 171.678C69.6426 171.266 67.9234 172.348 67.5184 174.094C67.1134 175.84 68.1761 177.59 69.8919 178.002C71.6077 178.415 73.3269 177.333 73.7319 175.587Z" fill="white"/>
<g clip-path="url(#clip2_39_54)">
<path d="M240.192 80.0406C240.363 79.3125 239.912 78.5831 239.184 78.4112C238.456 78.2394 237.727 78.6903 237.555 79.4183C237.383 80.1464 237.834 80.8759 238.562 81.0477C239.29 81.2195 240.02 80.7686 240.192 80.0406Z" fill="white"/>
</g>
<path d="M52.7937 107.176C53.0361 106.131 52.4 105.084 51.3731 104.837C50.3461 104.59 49.317 105.237 49.0746 106.283C48.8322 107.328 49.4683 108.375 50.4953 108.622C51.5223 108.869 52.5513 108.221 52.7937 107.176Z" fill="white"/>
<path d="M116.698 65.6178C116.869 64.8833 116.422 64.1473 115.7 63.9739C114.978 63.8005 114.255 64.2554 114.085 64.99C113.915 65.7245 114.362 66.4605 115.083 66.6338C115.805 66.8072 116.528 66.3523 116.698 65.6178Z" fill="white"/>
<path d="M209.576 126.336C209.917 124.867 209.023 123.395 207.579 123.048C206.136 122.701 204.69 123.611 204.349 125.08C204.008 126.549 204.902 128.021 206.346 128.368C207.789 128.715 209.235 127.805 209.576 126.336Z" fill="white"/>
<g clip-path="url(#clip3_39_54)">
<path d="M255.091 173.499C255.263 172.771 254.812 172.041 254.084 171.869C253.356 171.697 252.626 172.148 252.454 172.876C252.282 173.604 252.733 174.334 253.461 174.506C254.189 174.678 254.919 174.227 255.091 173.499Z" fill="white"/>
</g>
<defs>
<filter id="filter0_f_39_54" x="37.3948" y="9.63403" width="226.199" height="232.971" filterUnits="userSpaceOnUse" color-interpolation-filters="sRGB">
<feFlood flood-opacity="0" result="BackgroundImageFix"/>
<feBlend mode="normal" in="SourceGraphic" in2="BackgroundImageFix" result="shape"/>
<feGaussianBlur stdDeviation="32" result="effect1_foregroundBlur_39_54"/>
</filter>
<filter id="filter1_d_39_54" x="99.6921" y="73.634" width="106.199" height="112.971" filterUnits="userSpaceOnUse" color-interpolation-filters="sRGB">
<feFlood flood-opacity="0" result="BackgroundImageFix"/>
<feColorMatrix in="SourceAlpha" type="matrix" values="0 0 0 0 0 0 0 0 0 0 0 0 0 0 0 0 0 0 127 0" result="hardAlpha"/>
<feOffset dy="4"/>
<feGaussianBlur stdDeviation="2"/>
<feComposite in2="hardAlpha" operator="out"/>
<feColorMatrix type="matrix" values="0 0 0 0 0 0 0 0 0 0 0 0 0 0 0 0 0 0 0.25 0"/>
<feBlend mode="normal" in2="BackgroundImageFix" result="effect1_dropShadow_39_54"/>
<feBlend mode="normal" in="SourceGraphic" in2="effect1_dropShadow_39_54" result="shape"/>
</filter>
<linearGradient id="paint0_linear_39_54" x1="449.492" y1="41.8039" x2="279.507" y2="299.829" gradientUnits="userSpaceOnUse">
<stop offset="0.0264292" stop-color="#332D9C"/>
<stop offset="0.547498" stop-color="#544DC9"/>
<stop offset="1" stop-color="#4B43C1"/>
</linearGradient>
<clipPath id="clip0_39_54">
<rect width="98.1987" height="104.971" fill="white" transform="translate(101.395 73.634)"/>
</clipPath>
<clipPath id="clip1_39_54">
<rect width="98.1987" height="104.971" fill="white" transform="translate(103.692 73.634)"/>
</clipPath>
<clipPath id="clip2_39_54">
<rect width="2.70893" height="2.70893" fill="white" transform="translate(237.518 78.3746)"/>
</clipPath>
<clipPath id="clip3_39_54">
<rect width="2.70893" height="2.70893" fill="white" transform="translate(252.417 171.833)"/>
</clipPath>
</defs>
</svg>
